<!-- icon666.com - MILLIONS OF FREE VECTOR ICONS --><svg id="Capa_1" enable-background="new 0 0 512 512" viewBox="0 0 512 512" xmlns="http://www.w3.org/2000/svg"><g><path d="m318.197 391v-15c0-36.259 20.532-65.458 42.271-96.372 23.465-33.371 47.729-67.877 47.729-113.628 0-91.533-74.019-166-165-166s-165 74.467-165 166v225c0 66.719 53.832 121 120 121s120-54.281 120-121zm-210 0v-225c0-74.991 60.561-136 135-136s135 61.009 135 136c0 36.259-20.532 65.458-42.271 96.372-23.465 33.371-47.729 67.877-47.729 113.628v15c0 50.177-40.374 91-90 91s-90-40.823-90-91z" fill="#000000" style="fill: rgb(138, 186, 255);"></path><path d="m258.197 331v-22.904c19.157-17.066 30-41.117 30-67.096 0-49.626-40.374-90-90-90-10.109 0-19.975 1.672-29.316 4.889 4.896-37.141 36.345-65.889 74.316-65.889 41.355 0 75 34.094 75 76h30c0-58.448-47.103-106-105-106s-105 47.552-105 106c0 28.047 10.922 54.415 30.754 74.246l21.213-21.213c-8.976-8.977-15.387-19.831-18.887-31.675 8.295-4.178 17.448-6.358 26.92-6.358 33.084 0 60 26.916 60 60 0 35.388-28.208 50.513-30 52.512v37.488c0 16.542-13.458 30-30 30s-30-13.458-30-30h-30c0 33.084 26.916 60 60 60s60-26.916 60-60z" fill="#000000" style="fill: rgb(138, 186, 255);"></path><path d="m412.59 365.393-19.393 19.394-19.394-19.394-21.213 21.214 19.394 19.393-19.394 19.393 21.213 21.214 19.394-19.394 19.393 19.394 21.213-21.214-19.393-19.393 19.393-19.393z" fill="#000000" style="fill: rgb(138, 186, 255);"></path></g></svg>