<!-- icon666.com - MILLIONS OF FREE VECTOR ICONS --><svg id="Capa_1" enable-background="new 0 0 512 512" viewBox="0 0 512 512" xmlns="http://www.w3.org/2000/svg"><g><path d="m443.056 349.39-18.696-37.39h-48.36v-100c0-55.14-44.859-100-100-100h-156v-52c0-33.084-26.916-60-60-60h-60v40h60c11.028 0 20 8.972 20 20v185.526c-47.258 22.51-80 70.738-80 126.474 0 77.196 62.804 140 140 140s140-62.804 140-140c0-6.79-.496-13.466-1.435-20h57.435v43.44c-23.278 8.256-40 30.487-40 56.56 0 33.084 26.916 60 60 60s60-26.916 60-60c0-26.073-16.722-48.304-40-56.56v-43.44h23.64l7.639 15.279c9.731 19.462 24.658 35.796 43.168 47.235 18.509 11.44 39.793 17.486 61.553 17.486v-40c-29.385 0-55.803-16.327-68.944-42.61zm-87.056 122.61c-11.028 0-20-8.972-20-20s8.972-20 20-20 20 8.972 20 20-8.972 20-20 20zm-149.716-25.193-31.643-54.807h63.348c-4.403 21.605-15.798 40.695-31.705 54.807zm-164.273-54.807h63.348l-31.643 54.807c-15.907-14.112-27.302-33.202-31.705-54.807zm31.705-94.807 31.643 54.807h-63.348c4.403-21.605 15.798-40.695 31.705-54.807zm100.925 54.807 31.643-54.807c15.907 14.111 27.303 33.201 31.706 54.807zm-34.641-20-31.672-54.857c9.958-3.333 20.607-5.143 31.672-5.143s21.714 1.81 31.672 5.144zm-31.672 134.856 31.672-54.856 31.672 54.857c-9.958 3.333-20.607 5.143-31.672 5.143s-21.714-1.81-31.672-5.144zm31.672-234.856c-6.79 0-13.466.496-20 1.435 0-15.071 0-64.838 0-81.435h156c33.084 0 60 26.916 60 60v100h-69.526c-22.51-47.257-70.738-80-126.474-80z" fill="#000000" style="fill: rgb(138, 186, 255);"></path></g></svg>